# xmcd CD database file
#
# Track frame offsets:
#	150
#	12076
#	23159
#	33988
#	45477
#	56871
#	67169
#	76376
#	85742
#	97374
#
# Disc length: 1475 seconds
#
# Revision: 0
# Processed by: cddbd v1.5.2PL0 Copyright (c) Steve Scherf et al.
# Submitted via: CDex 1.51
#
DISCID=7e05c10a
DTITLE=classic 50's jukebox - 3 cd set cd3
DYEAR=2006
DGENRE=Country
TTITLE0=That's All I Want From You_Jaye P Morgan
TTITLE1=Singing The Blus_Guy Mitchell
TTITLE2=Marianne_Terry Gilkyson
TTITLE3=The Battle Of New Orleans_Johnny Horton
TTITLE4=A White Sports Coat (and A Pink Carnation)_Marty Robbins
TTITLE5=Oh! Carol_Neil Sedaka
TTITLE6=Summertime, Summertime_The Jamies 
TTITLE7=The Happy Organ_Dave Baby Cortez
TTITLE8=Don't You Know_Della Reese
TTITLE9=Unchained Melody_Roy Hamilton
EXTD=YEAR: 2006
EXTT0=
EXTT1=
EXTT2=
EXTT3=
EXTT4=
EXTT5=
EXTT6=
EXTT7=
EXTT8=
EXTT9=
PLAYORDER=
